<svg width="21" height="21" viewBox="0 0 21 21" fill="none" xmlns="http://www.w3.org/2000/svg">
<path d="M19.2886 1.33735C18.9825 1.02874 18.6184 0.783789 18.2171 0.616628C17.8159 0.449467 17.3855 0.363403 16.9509 0.363403C16.5162 0.363403 16.0859 0.449467 15.6846 0.616628C15.2834 0.783789 14.9192 1.02874 14.6131 1.33735L10.3657 5.61773L6.11822 1.33735C5.49821 0.71734 4.6573 0.369024 3.78047 0.369024C2.90365 0.369024 2.06274 0.71734 1.44273 1.33735C0.822717 1.95736 0.474401 2.79827 0.474401 3.6751C0.474401 4.55192 0.822717 5.39283 1.44273 6.01284L5.72311 10.2603L1.44273 14.5078C1.13412 14.8138 0.889166 15.178 0.722005 15.5792C0.554844 15.9805 0.468781 16.4108 0.468781 16.8455C0.468781 17.2802 0.554844 17.7105 0.722005 18.1118C0.889166 18.513 1.13412 18.8772 1.44273 19.1832C1.74882 19.4919 2.11298 19.7368 2.51421 19.904C2.91545 20.0711 3.34581 20.1572 3.78047 20.1572C4.21514 20.1572 4.6455 20.0711 5.04673 19.904C5.44796 19.7368 5.81213 19.4919 6.11822 19.1832L10.3657 14.9029L14.6131 19.1832C14.9192 19.4919 15.2834 19.7368 15.6846 19.904C16.0859 20.0711 16.5162 20.1572 16.9509 20.1572C17.3855 20.1572 17.8159 20.0711 18.2171 19.904C18.6184 19.7368 18.9825 19.4919 19.2886 19.1832C19.5972 18.8772 19.8422 18.513 20.0093 18.1118C20.1765 17.7105 20.2626 17.2802 20.2626 16.8455C20.2626 16.4108 20.1765 15.9805 20.0093 15.5792C19.8422 15.178 19.5972 14.8138 19.2886 14.5078L15.0082 10.2603L19.2886 6.01284C19.5972 5.70675 19.8422 5.34259 20.0093 4.94135C20.1765 4.54012 20.2626 4.10976 20.2626 3.6751C20.2626 3.24043 20.1765 2.81007 20.0093 2.40884C19.8422 2.0076 19.5972 1.64344 19.2886 1.33735Z" fill="#615D7E"/>
</svg>
