<svg width="35" height="29" viewBox="0 0 35 29" fill="none" xmlns="http://www.w3.org/2000/svg">
<path d="M34.1222 0.732178H29.9544C29.0479 0.732178 28.1859 1.16763 27.6527 1.91411L13.6828 21.2872L7.35543 12.5071C6.82222 11.7695 5.9691 11.3251 5.05377 11.3251H0.885892C0.308255 11.3251 -0.0294411 11.9828 0.308255 12.4538L11.3811 27.81C11.6427 28.1751 11.9875 28.4726 12.387 28.6778C12.7865 28.8831 13.2292 28.9901 13.6783 28.9901C14.1275 28.9901 14.5701 28.8831 14.9696 28.6778C15.3691 28.4726 15.714 28.1751 15.9756 27.81L34.691 1.86079C35.0376 1.3898 34.6999 0.732178 34.1222 0.732178Z" fill="#4C6FFF"/>
</svg>
