<svg width="49" height="47" viewBox="0 0 49 47" fill="none" xmlns="http://www.w3.org/2000/svg">
<g id="dribbble copy">
<g id="Profile Picture/nitial_PP_36px_Rounded">
<g id="PP4">
<rect id="Mask" x="1.96533" y="1.99023" width="45.3386" height="43" rx="7.5" fill="#D8D8D8" stroke="#44444F" stroke-width="3"/>
<g id="akar-icons:person" opacity="0.4" clip-path="url(#clip0_275_21039)">
<g id="Group">
<path id="Vector" d="M24.6344 23.4902C26.9356 23.4902 28.8011 21.5315 28.8011 19.1152C28.8011 16.699 26.9356 14.7402 24.6344 14.7402C22.3333 14.7402 20.4678 16.699 20.4678 19.1152C20.4678 21.5315 22.3333 23.4902 24.6344 23.4902Z" stroke="black" stroke-width="2"/>
<path id="Vector_2" d="M28.8013 25.2402H29.0947C29.7039 25.2404 30.2921 25.4742 30.7488 25.8976C31.2054 26.321 31.4991 26.905 31.5747 27.5397L31.9005 30.2732C31.9298 30.5195 31.9089 30.7695 31.8391 31.0066C31.7694 31.2437 31.6524 31.4625 31.496 31.6486C31.3396 31.8346 31.1472 31.9835 30.9318 32.0855C30.7163 32.1876 30.4827 32.2403 30.2463 32.2402H19.023C18.7866 32.2403 18.553 32.1876 18.3375 32.0855C18.1221 31.9835 17.9297 31.8346 17.7733 31.6486C17.6169 31.4625 17.4999 31.2437 17.4302 31.0066C17.3604 30.7695 17.3395 30.5195 17.3688 30.2732L17.6938 27.5397C17.7694 26.9047 18.0633 26.3205 18.5203 25.897C18.9774 25.4736 19.566 25.24 20.1755 25.2402H20.468" stroke="black" stroke-width="2" stroke-linecap="round" stroke-linejoin="round"/>
</g>
</g>
</g>
</g>
</g>
<defs>
<clipPath id="clip0_275_21039">
<rect width="20" height="21" fill="white" transform="translate(14.6348 12.9902)"/>
</clipPath>
</defs>
</svg>
