<svg width="282" height="282" viewBox="0 0 282 282" fill="none" xmlns="http://www.w3.org/2000/svg">
<circle cx="140.799" cy="140.682" r="108.088" stroke="#23B899" stroke-width="64.8527"/>
<path d="M141.41 32.5938C94.9242 32.5938 55.5172 61.3477 39.8969 102.148C35.2529 114.277 32.7114 127.472 32.7114 141.292" stroke="#333FFF" stroke-width="64.8527"/>
<path d="M76.8111 227.746C94.8364 240.944 117.16 248.769 141.41 248.769C200.494 248.769 248.887 200.377 248.887 141.292C248.887 80.9863 200.494 32.5938 141.41 32.5938" stroke="#FFB0E3" stroke-width="64.8527"/>
<path d="M179.29 241.83C219.846 226.418 248.887 187.063 248.887 141.292C248.887 80.9863 200.494 32.5938 141.41 32.5938" stroke="#7A79FF" stroke-width="64.8527"/>
<path d="M248.887 141.291C248.887 109.709 235.615 81.3945 214.485 61.5866C195.268 43.5713 169.552 32.5928 141.41 32.5928" stroke="#B8FFF2" stroke-width="64.8527"/>
<path d="M214.485 61.5866C195.268 43.5713 169.552 32.5928 141.41 32.5928" stroke="#58CFFF" stroke-width="64.8527"/>
</svg>
