<svg width="48" height="38" viewBox="0 0 48 38" fill="none" xmlns="http://www.w3.org/2000/svg">
<rect x="0.874512" y="0.106445" width="46.2379" height="37.6442" rx="10.4567" fill="#4B53FF"/>
<path fill-rule="evenodd" clip-rule="evenodd" d="M29.8339 13.9503C30.9476 15.3045 31.6162 17.0384 31.6162 18.9286C31.6162 23.2599 28.105 26.7711 23.7737 26.7711C19.4424 26.7711 15.9312 23.2599 15.9312 18.9286C15.9312 14.5973 19.4424 11.0861 23.7737 11.0861C25.6499 11.0861 27.3723 11.7449 28.722 12.8439L29.154 12.4119L29.3593 11.3184C29.4392 10.8927 29.8491 10.6124 30.2748 10.6923C30.7005 10.7722 30.9808 11.1821 30.9009 11.6078L30.8561 11.8462L31.0945 11.8014C31.5202 11.7215 31.9301 12.0018 32.01 12.4275C32.0899 12.8532 31.8096 13.2631 31.3839 13.343L30.2233 13.5609L29.8339 13.9503ZM27.6056 13.9605C26.5457 13.1418 25.2166 12.6547 23.7737 12.6547C20.3087 12.6547 17.4997 15.4637 17.4997 18.9287C17.4997 22.3938 20.3087 25.2027 23.7737 25.2027C27.2388 25.2027 30.0477 22.3938 30.0477 18.9287C30.0477 17.4719 29.5512 16.131 28.7182 15.0662L27.5979 16.1864C28.1526 16.9585 28.4792 17.9055 28.4792 18.9287C28.4792 21.5275 26.3725 23.6342 23.7737 23.6342C21.1749 23.6342 19.0682 21.5275 19.0682 18.9287C19.0682 16.3299 21.1749 14.2232 23.7737 14.2232C24.783 14.2232 25.718 14.5409 26.4843 15.0818L27.6056 13.9605ZM25.3501 16.216C24.8869 15.9462 24.3484 15.7917 23.7737 15.7917C22.0412 15.7917 20.6367 17.1962 20.6367 18.9287C20.6367 20.6612 22.0412 22.0657 23.7737 22.0657C25.5062 22.0657 26.9107 20.6612 26.9107 18.9287C26.9107 18.3399 26.7485 17.7889 26.4662 17.3181L25.2832 18.5011C25.3216 18.637 25.3422 18.7805 25.3422 18.9287C25.3422 19.795 24.64 20.4972 23.7737 20.4972C22.9074 20.4972 22.2052 19.795 22.2052 18.9287C22.2052 18.0625 22.9074 17.3602 23.7737 17.3602C23.9064 17.3602 24.0353 17.3767 24.1584 17.4077L25.3501 16.216Z" fill="white"/>
</svg>
