<svg width="33" height="33" viewBox="0 0 33 33" fill="none" xmlns="http://www.w3.org/2000/svg">
<rect x="0.504683" y="0.833296" width="31.8859" height="31.8859" rx="4.59373" fill="#161A2E" stroke="#29304D" stroke-width="0.540439"/>
<mask id="path-2-outside-1_293_4935" maskUnits="userSpaceOnUse" x="5.1792" y="14.1553" width="23" height="5" fill="black">
<rect fill="white" x="5.1792" y="14.1553" width="23" height="5"/>
<path fill-rule="evenodd" clip-rule="evenodd" d="M18.0689 16.7766C18.0689 17.672 17.343 18.3979 16.4475 18.3979C15.5521 18.3979 14.8262 17.672 14.8262 16.7766C14.8262 15.8812 15.5521 15.1553 16.4475 15.1553C17.343 15.1553 18.0689 15.8812 18.0689 16.7766ZM9.42183 16.7767C9.42183 17.6721 8.69595 18.398 7.80052 18.398C6.90509 18.398 6.1792 17.6721 6.1792 16.7767C6.1792 15.8812 6.90509 15.1553 7.80052 15.1553C8.69595 15.1553 9.42183 15.8812 9.42183 16.7767ZM25.0946 18.3979C25.99 18.3979 26.7159 17.672 26.7159 16.7766C26.7159 15.8812 25.99 15.1553 25.0946 15.1553C24.1991 15.1553 23.4732 15.8812 23.4732 16.7766C23.4732 17.672 24.1991 18.3979 25.0946 18.3979Z"/>
</mask>
<path fill-rule="evenodd" clip-rule="evenodd" d="M18.0689 16.7766C18.0689 17.672 17.343 18.3979 16.4475 18.3979C15.5521 18.3979 14.8262 17.672 14.8262 16.7766C14.8262 15.8812 15.5521 15.1553 16.4475 15.1553C17.343 15.1553 18.0689 15.8812 18.0689 16.7766ZM9.42183 16.7767C9.42183 17.6721 8.69595 18.398 7.80052 18.398C6.90509 18.398 6.1792 17.6721 6.1792 16.7767C6.1792 15.8812 6.90509 15.1553 7.80052 15.1553C8.69595 15.1553 9.42183 15.8812 9.42183 16.7767ZM25.0946 18.3979C25.99 18.3979 26.7159 17.672 26.7159 16.7766C26.7159 15.8812 25.99 15.1553 25.0946 15.1553C24.1991 15.1553 23.4732 15.8812 23.4732 16.7766C23.4732 17.672 24.1991 18.3979 25.0946 18.3979Z" fill="#47536D"/>
<path d="M16.4475 18.9383C17.6414 18.9383 18.6093 17.9705 18.6093 16.7766H17.5284C17.5284 17.3735 17.0445 17.8575 16.4475 17.8575V18.9383ZM14.2858 16.7766C14.2858 17.9705 15.2536 18.9383 16.4475 18.9383V17.8575C15.8506 17.8575 15.3667 17.3735 15.3667 16.7766H14.2858ZM16.4475 14.6148C15.2536 14.6148 14.2858 15.5827 14.2858 16.7766H15.3667C15.3667 16.1796 15.8506 15.6957 16.4475 15.6957V14.6148ZM18.6093 16.7766C18.6093 15.5827 17.6414 14.6148 16.4475 14.6148V15.6957C17.0445 15.6957 17.5284 16.1796 17.5284 16.7766H18.6093ZM7.80052 18.9384C8.99442 18.9384 9.96227 17.9706 9.96227 16.7767H8.88139C8.88139 17.3736 8.39747 17.8575 7.80052 17.8575V18.9384ZM5.63876 16.7767C5.63876 17.9706 6.60661 18.9384 7.80052 18.9384V17.8575C7.20356 17.8575 6.71964 17.3736 6.71964 16.7767H5.63876ZM7.80052 14.6149C6.60661 14.6149 5.63876 15.5827 5.63876 16.7767H6.71964C6.71964 16.1797 7.20356 15.6958 7.80052 15.6958V14.6149ZM9.96227 16.7767C9.96227 15.5827 8.99442 14.6149 7.80052 14.6149V15.6958C8.39747 15.6958 8.88139 16.1797 8.88139 16.7767H9.96227ZM26.1754 16.7766C26.1754 17.3735 25.6915 17.8575 25.0946 17.8575V18.9383C26.2885 18.9383 27.2563 17.9705 27.2563 16.7766H26.1754ZM25.0946 15.6957C25.6915 15.6957 26.1754 16.1796 26.1754 16.7766H27.2563C27.2563 15.5827 26.2885 14.6148 25.0946 14.6148V15.6957ZM24.0137 16.7766C24.0137 16.1796 24.4976 15.6957 25.0946 15.6957V14.6148C23.9007 14.6148 22.9328 15.5827 22.9328 16.7766H24.0137ZM25.0946 17.8575C24.4976 17.8575 24.0137 17.3735 24.0137 16.7766H22.9328C22.9328 17.9705 23.9007 18.9383 25.0946 18.9383V17.8575Z" fill="#29304D" mask="url(#path-2-outside-1_293_4935)"/>
</svg>
